<svg width="30" height="30" viewBox="0 0 30 30" fill="none" xmlns="http://www.w3.org/2000/svg">
<path fill-rule="evenodd" clip-rule="evenodd" d="M28.9281 1.07195C29.8812 2.02501 29.8812 3.57024 28.9281 4.5233L4.52333 28.9281C3.57027 29.8811 2.02504 29.8811 1.07198 28.9281C0.118911 27.975 0.118911 26.4298 1.07198 25.4767L25.4767 1.07195C26.4298 0.118881 27.975 0.118881 28.9281 1.07195Z" fill="#2D54DE"/>
<path fill-rule="evenodd" clip-rule="evenodd" d="M0.357178 2.79762C0.357178 1.44979 1.44982 0.357147 2.79765 0.357147H27.2024C28.5503 0.357147 29.6429 1.44979 29.6429 2.79762V27.2024C29.6429 28.5502 28.5503 29.6429 27.2024 29.6429C25.8546 29.6429 24.7619 28.5502 24.7619 27.2024V5.2381H2.79765C1.44982 5.2381 0.357178 4.14546 0.357178 2.79762Z" fill="#2D54DE"/>
</svg>
